<?xml version="1.0" encoding="UTF-8"?>
<svg xmlns="http://www.w3.org/2000/svg" xmlns:xlink="http://www.w3.org/1999/xlink" viewBox="0 0 512 512" width="512" height="512"><defs><linearGradient id="linear-gradient" x1="101.343" y1="488.657" x2="452.086" y2="137.914" gradientUnits="userSpaceOnUse"><stop offset="0" stop-color="#41dfd0"/><stop offset="1" stop-color="#ee83ef"/></linearGradient></defs><g id="gradient"><path d="M121.807,288a40.347,40.347,0,0,1-36.286-22.426l-1.063-2.125a8,8,0,0,1,14.311-7.156l1.062,2.125a24.569,24.569,0,0,0,43.951,0l1.063-2.125a8,8,0,0,1,14.31,7.156l-1.062,2.125A40.348,40.348,0,0,1,121.807,288ZM408,362.422V400a8,8,0,0,1,8,8v16h24a8,8,0,0,1,8,8v16h24a8,8,0,0,1,8,8v32a8,8,0,0,1-8,8H128a8,8,0,0,1-8-8V447.16l-64.884-7.209A8,8,0,0,1,48,432V320.221l-29.336-26.26A8,8,0,0,1,17.49,283.35l38.874-54.423,3.226-22.083A8,8,0,0,1,67.506,200H112V184H88a8,8,0,0,1-8-8V136a8,8,0,0,1,8-8h24V100a8,8,0,0,1,8-8h40a8,8,0,0,1,8,8v28h24a8,8,0,0,1,8,8v40a8,8,0,0,1-8,8H168v16H320a7.988,7.988,0,0,1,5.694,2.382L316.9,176H265.143a8,8,0,0,1-8-8V134.857H224a8,8,0,0,1-8-8V65.143a8,8,0,0,1,8-8h33.143V24a8,8,0,0,1,8-8h61.714a8,8,0,0,1,8,8V57.143H368a8,8,0,0,1,8,8v61.714a8,8,0,0,1-8,8H334.857V152h16a8,8,0,0,1,7.693,5.8l8.573,30.007L376,196.686V152a8,8,0,0,1,11.578-7.155l27.578,13.789A15.912,15.912,0,0,1,424,172.944V294.112l13.4,26.811,36.164,7.232A8,8,0,0,1,480,336v48a8,8,0,0,1-13.657,5.657L452.056,375.37l-37.625-7.525a8,8,0,0,1-5.087-3.407ZM392,208h16V192H392Zm0-32h16v-3.056l-16-8Zm-47.177-8H331.1l11.892,35.679,30.665,30.664A8,8,0,0,1,376,240v48h32V224H384a8,8,0,0,1-5.657-2.343l-24-24a8.013,8.013,0,0,1-2.035-3.459Zm-71.68-41.143V160h38.869a7.956,7.956,0,0,1,6.845-7.909V126.857a8,8,0,0,1,8-8H360V73.143H326.857a8,8,0,0,1-8-8V32H273.143V65.143a8,8,0,0,1-8,8H232v45.714h33.143A8,8,0,0,1,273.143,126.857ZM314.29,400h34.4L360,388.687V243.313l-29.657-29.656a8,8,0,0,1-1.79-2.769l.46,2.917a388.328,388.328,0,0,1-7.3,157.01ZM128,176v24h24V176a8,8,0,0,1,8-8h24V144H160a8,8,0,0,1-8-8V108H128v28a8,8,0,0,1-8,8H96v24h24A8,8,0,0,1,128,176Zm8,264v40H296V408a7.856,7.856,0,0,1,.058-.926c.009-.079.024-.157.036-.236.034-.234.077-.465.131-.692.009-.039.012-.079.022-.118l9.961-39.157a372.435,372.435,0,0,0,7-150.577l-.047-.294H74.422l-2.506,17.156a8,8,0,0,1-1.406,3.494L34.675,286.819l26.661,23.866A8,8,0,0,1,64,316.645v29.419H80.218a26.188,26.188,0,0,0,18.641-7.721,8,8,0,1,1,11.315,11.314,42.089,42.089,0,0,1-29.956,12.407H64V424.84l64.884,7.209A8,8,0,0,1,136,440Zm272,0a8,8,0,0,1-8-8V416H312v64H464V464H440a8,8,0,0,1-8-8V440Zm12.818-87.195,36.751,7.35a8.012,8.012,0,0,1,4.088,2.188L464,364.687V342.559l-33.569-6.714a8,8,0,0,1-5.586-4.267L411.056,304H376v88a8,8,0,0,1-2.343,5.657L371.313,400H392V336a8,8,0,0,1,14.656-4.438Z" style="fill:url(#linear-gradient)"/></g></svg>
