<?xml version="1.0" encoding="UTF-8" standalone="no"?>
<!DOCTYPE svg PUBLIC "-//W3C//DTD SVG 1.1//EN"
 "http://www.w3.org/Graphics/SVG/1.1/DTD/svg11.dtd">
<!-- Generated by graphviz version 2.46.1 (20210213.1702)
 -->
<!-- Title: dependencies Pages: 1 -->
<svg width="2144pt" height="284pt"
 viewBox="0.00 0.00 2144.00 284.00" xmlns="http://www.w3.org/2000/svg" xmlns:xlink="http://www.w3.org/1999/xlink">
<g id="graph0" class="graph" transform="scale(1 1) rotate(0) translate(4 280)">
<title>dependencies</title>
<polygon fill="white" stroke="transparent" points="-4,4 -4,-280 2140,-280 2140,4 -4,4"/>
<text text-anchor="start" x="1047.01" y="-42.4" font-family="sans-serif" font-weight="bold" font-size="14.00">Legend</text>
<polygon fill="#ffffb3" stroke="transparent" points="834,-10 834,-30 854,-30 854,-10 834,-10"/>
<text text-anchor="start" x="857.63" y="-15.4" font-family="sans-serif" font-size="14.00"> &#160;Declarations</text>
<polygon fill="#8dd3c7" stroke="transparent" points="947,-10 947,-30 967,-30 967,-10 947,-10"/>
<text text-anchor="start" x="970.73" y="-15.4" font-family="sans-serif" font-size="14.00"> &#160;Module</text>
<polygon fill="#80b1d3" stroke="transparent" points="1033,-10 1033,-30 1053,-30 1053,-10 1033,-10"/>
<text text-anchor="start" x="1056.78" y="-15.4" font-family="sans-serif" font-size="14.00"> &#160;Bootstrap</text>
<polygon fill="#fdb462" stroke="transparent" points="1130,-10 1130,-30 1150,-30 1150,-10 1130,-10"/>
<text text-anchor="start" x="1153.67" y="-15.4" font-family="sans-serif" font-size="14.00"> &#160;Providers</text>
<polygon fill="#fb8072" stroke="transparent" points="1226,-10 1226,-30 1246,-30 1246,-10 1226,-10"/>
<text text-anchor="start" x="1249.73" y="-15.4" font-family="sans-serif" font-size="14.00"> &#160;Exports</text>
<g id="clust1" class="cluster">
<title>cluster_AppModule</title>
<polygon fill="none" stroke="black" stroke-dasharray="1,5" points="8,-70 8,-268 2128,-268 2128,-70 8,-70"/>
</g>
<g id="clust2" class="cluster">
<title>cluster_AppModule_declarations</title>
<polygon fill="none" stroke="black" points="168,-78 168,-130 2120,-130 2120,-78 168,-78"/>
</g>
<g id="clust16" class="cluster">
<title>cluster_AppModule_imports</title>
<polygon fill="none" stroke="black" points="16,-78 16,-130 160,-130 160,-78 16,-78"/>
</g>
<g id="clust18" class="cluster">
<title>cluster_AppModule_bootstrap</title>
<polygon fill="none" stroke="black" points="1067,-208 1067,-260 1191,-260 1191,-208 1067,-208"/>
</g>
<!-- AlertasComponent -->
<g id="node1" class="node">
<title>AlertasComponent</title>
<polygon fill="#ffffb3" stroke="black" points="2111.75,-122 1990.25,-122 1990.25,-86 2111.75,-86 2111.75,-122"/>
<text text-anchor="middle" x="2051" y="-99.8" font-family="Times,serif" font-size="14.00">AlertasComponent</text>
</g>
<!-- AppModule -->
<g id="node14" class="node">
<title>AppModule</title>
<polygon fill="#8dd3c7" stroke="black" points="1170.66,-187 1167.66,-191 1146.66,-191 1143.66,-187 1087.34,-187 1087.34,-151 1170.66,-151 1170.66,-187"/>
<text text-anchor="middle" x="1129" y="-164.8" font-family="Times,serif" font-size="14.00">AppModule</text>
</g>
<!-- AlertasComponent&#45;&gt;AppModule -->
<g id="edge1" class="edge">
<title>AlertasComponent&#45;&gt;AppModule</title>
<path fill="none" stroke="black" d="M2051,-122.09C2051,-145.13 2051,-182 2051,-182 2051,-182 1180.71,-182 1180.71,-182"/>
<polygon fill="black" stroke="black" points="1180.71,-178.5 1170.71,-182 1180.71,-185.5 1180.71,-178.5"/>
</g>
<!-- AppComponent -->
<g id="node2" class="node">
<title>AppComponent</title>
<polygon fill="#ffffb3" stroke="black" points="1971.94,-122 1866.06,-122 1866.06,-86 1971.94,-86 1971.94,-122"/>
<text text-anchor="middle" x="1919" y="-99.8" font-family="Times,serif" font-size="14.00">AppComponent</text>
</g>
<!-- AppComponent&#45;&gt;AppModule -->
<g id="edge2" class="edge">
<title>AppComponent&#45;&gt;AppModule</title>
<path fill="none" stroke="black" d="M1919,-122.04C1919,-143.66 1919,-177 1919,-177 1919,-177 1180.92,-177 1180.92,-177"/>
<polygon fill="black" stroke="black" points="1180.92,-173.5 1170.92,-177 1180.92,-180.5 1180.92,-173.5"/>
</g>
<!-- CadastrarComponent -->
<g id="node3" class="node">
<title>CadastrarComponent</title>
<polygon fill="#ffffb3" stroke="black" points="1848.47,-122 1713.53,-122 1713.53,-86 1848.47,-86 1848.47,-122"/>
<text text-anchor="middle" x="1781" y="-99.8" font-family="Times,serif" font-size="14.00">CadastrarComponent</text>
</g>
<!-- CadastrarComponent&#45;&gt;AppModule -->
<g id="edge3" class="edge">
<title>CadastrarComponent&#45;&gt;AppModule</title>
<path fill="none" stroke="black" d="M1781,-122.22C1781,-142.37 1781,-172 1781,-172 1781,-172 1180.78,-172 1180.78,-172"/>
<polygon fill="black" stroke="black" points="1180.78,-168.5 1170.78,-172 1180.78,-175.5 1180.78,-168.5"/>
</g>
<!-- EntrarComponent -->
<g id="node4" class="node">
<title>EntrarComponent</title>
<polygon fill="#ffffb3" stroke="black" points="1695.31,-122 1578.69,-122 1578.69,-86 1695.31,-86 1695.31,-122"/>
<text text-anchor="middle" x="1637" y="-99.8" font-family="Times,serif" font-size="14.00">EntrarComponent</text>
</g>
<!-- EntrarComponent&#45;&gt;AppModule -->
<g id="edge4" class="edge">
<title>EntrarComponent&#45;&gt;AppModule</title>
<path fill="none" stroke="black" d="M1637,-122.22C1637,-140.83 1637,-167 1637,-167 1637,-167 1181,-167 1181,-167"/>
<polygon fill="black" stroke="black" points="1181,-163.5 1171,-167 1181,-170.5 1181,-163.5"/>
</g>
<!-- InicioComponent -->
<g id="node5" class="node">
<title>InicioComponent</title>
<polygon fill="#ffffb3" stroke="black" points="1560.99,-122 1447.01,-122 1447.01,-86 1560.99,-86 1560.99,-122"/>
<text text-anchor="middle" x="1504" y="-99.8" font-family="Times,serif" font-size="14.00">InicioComponent</text>
</g>
<!-- InicioComponent&#45;&gt;AppModule -->
<g id="edge5" class="edge">
<title>InicioComponent&#45;&gt;AppModule</title>
<path fill="none" stroke="black" d="M1504,-122.03C1504,-139.06 1504,-162 1504,-162 1504,-162 1180.93,-162 1180.93,-162"/>
<polygon fill="black" stroke="black" points="1180.93,-158.5 1170.93,-162 1180.93,-165.5 1180.93,-158.5"/>
</g>
<!-- MenuComponent -->
<g id="node6" class="node">
<title>MenuComponent</title>
<polygon fill="#ffffb3" stroke="black" points="1428.99,-122 1315.01,-122 1315.01,-86 1428.99,-86 1428.99,-122"/>
<text text-anchor="middle" x="1372" y="-99.8" font-family="Times,serif" font-size="14.00">MenuComponent</text>
</g>
<!-- MenuComponent&#45;&gt;AppModule -->
<g id="edge6" class="edge">
<title>MenuComponent&#45;&gt;AppModule</title>
<path fill="none" stroke="black" d="M1372,-122.24C1372,-137.57 1372,-157 1372,-157 1372,-157 1180.77,-157 1180.77,-157"/>
<polygon fill="black" stroke="black" points="1180.77,-153.5 1170.77,-157 1180.77,-160.5 1180.77,-153.5"/>
</g>
<!-- MenuLateralComponent -->
<g id="node7" class="node">
<title>MenuLateralComponent</title>
<polygon fill="#ffffb3" stroke="black" points="1296.63,-122 1143.37,-122 1143.37,-86 1296.63,-86 1296.63,-122"/>
<text text-anchor="middle" x="1220" y="-99.8" font-family="Times,serif" font-size="14.00">MenuLateralComponent</text>
</g>
<!-- MenuLateralComponent&#45;&gt;AppModule -->
<g id="edge7" class="edge">
<title>MenuLateralComponent&#45;&gt;AppModule</title>
<path fill="none" stroke="black" d="M1157.01,-122.11C1157.01,-122.11 1157.01,-140.99 1157.01,-140.99"/>
<polygon fill="black" stroke="black" points="1153.51,-140.99 1157.01,-150.99 1160.51,-140.99 1153.51,-140.99"/>
</g>
<!-- PostagemDeleteComponent -->
<g id="node8" class="node">
<title>PostagemDeleteComponent</title>
<polygon fill="#ffffb3" stroke="black" points="1125.3,-122 952.7,-122 952.7,-86 1125.3,-86 1125.3,-122"/>
<text text-anchor="middle" x="1039" y="-99.8" font-family="Times,serif" font-size="14.00">PostagemDeleteComponent</text>
</g>
<!-- PostagemDeleteComponent&#45;&gt;AppModule -->
<g id="edge8" class="edge">
<title>PostagemDeleteComponent&#45;&gt;AppModule</title>
<path fill="none" stroke="black" d="M1106.16,-122.11C1106.16,-122.11 1106.16,-140.99 1106.16,-140.99"/>
<polygon fill="black" stroke="black" points="1102.66,-140.99 1106.16,-150.99 1109.66,-140.99 1102.66,-140.99"/>
</g>
<!-- PostagemEditComponent -->
<g id="node9" class="node">
<title>PostagemEditComponent</title>
<polygon fill="#ffffb3" stroke="black" points="934.6,-122 775.4,-122 775.4,-86 934.6,-86 934.6,-122"/>
<text text-anchor="middle" x="855" y="-99.8" font-family="Times,serif" font-size="14.00">PostagemEditComponent</text>
</g>
<!-- PostagemEditComponent&#45;&gt;AppModule -->
<g id="edge9" class="edge">
<title>PostagemEditComponent&#45;&gt;AppModule</title>
<path fill="none" stroke="black" d="M855,-122.24C855,-137.57 855,-157 855,-157 855,-157 1077.09,-157 1077.09,-157"/>
<polygon fill="black" stroke="black" points="1077.09,-160.5 1087.09,-157 1077.09,-153.5 1077.09,-160.5"/>
</g>
<!-- QuemSomosComponent -->
<g id="node10" class="node">
<title>QuemSomosComponent</title>
<polygon fill="#ffffb3" stroke="black" points="757.66,-122 604.34,-122 604.34,-86 757.66,-86 757.66,-122"/>
<text text-anchor="middle" x="681" y="-99.8" font-family="Times,serif" font-size="14.00">QuemSomosComponent</text>
</g>
<!-- QuemSomosComponent&#45;&gt;AppModule -->
<g id="edge10" class="edge">
<title>QuemSomosComponent&#45;&gt;AppModule</title>
<path fill="none" stroke="black" d="M681,-122.03C681,-139.06 681,-162 681,-162 681,-162 1077.26,-162 1077.26,-162"/>
<polygon fill="black" stroke="black" points="1077.26,-165.5 1087.26,-162 1077.26,-158.5 1077.26,-165.5"/>
</g>
<!-- RodapeComponent -->
<g id="node11" class="node">
<title>RodapeComponent</title>
<polygon fill="#ffffb3" stroke="black" points="586.1,-122 461.9,-122 461.9,-86 586.1,-86 586.1,-122"/>
<text text-anchor="middle" x="524" y="-99.8" font-family="Times,serif" font-size="14.00">RodapeComponent</text>
</g>
<!-- RodapeComponent&#45;&gt;AppModule -->
<g id="edge11" class="edge">
<title>RodapeComponent&#45;&gt;AppModule</title>
<path fill="none" stroke="black" d="M524,-122.22C524,-140.83 524,-167 524,-167 524,-167 1076.94,-167 1076.94,-167"/>
<polygon fill="black" stroke="black" points="1076.94,-170.5 1086.94,-167 1076.94,-163.5 1076.94,-170.5"/>
</g>
<!-- TemasComponent -->
<g id="node12" class="node">
<title>TemasComponent</title>
<polygon fill="#ffffb3" stroke="black" points="444.15,-122 325.85,-122 325.85,-86 444.15,-86 444.15,-122"/>
<text text-anchor="middle" x="385" y="-99.8" font-family="Times,serif" font-size="14.00">TemasComponent</text>
</g>
<!-- TemasComponent&#45;&gt;AppModule -->
<g id="edge12" class="edge">
<title>TemasComponent&#45;&gt;AppModule</title>
<path fill="none" stroke="black" d="M385,-122.22C385,-142.37 385,-172 385,-172 385,-172 1077.14,-172 1077.14,-172"/>
<polygon fill="black" stroke="black" points="1077.14,-175.5 1087.14,-172 1077.14,-168.5 1077.14,-175.5"/>
</g>
<!-- UserEditComponent -->
<g id="node13" class="node">
<title>UserEditComponent</title>
<polygon fill="#ffffb3" stroke="black" points="307.59,-122 176.41,-122 176.41,-86 307.59,-86 307.59,-122"/>
<text text-anchor="middle" x="242" y="-99.8" font-family="Times,serif" font-size="14.00">UserEditComponent</text>
</g>
<!-- UserEditComponent&#45;&gt;AppModule -->
<g id="edge13" class="edge">
<title>UserEditComponent&#45;&gt;AppModule</title>
<path fill="none" stroke="black" d="M242,-122.04C242,-143.66 242,-177 242,-177 242,-177 1077.11,-177 1077.11,-177"/>
<polygon fill="black" stroke="black" points="1077.11,-180.5 1087.11,-177 1077.11,-173.5 1077.11,-180.5"/>
</g>
<!-- AppComponent  -->
<g id="node16" class="node">
<title>AppComponent </title>
<polygon fill="#80b1d3" stroke="black" points="1183.44,-252 1074.56,-252 1074.56,-216 1183.44,-216 1183.44,-252"/>
<text text-anchor="middle" x="1129" y="-229.8" font-family="Times,serif" font-size="14.00">AppComponent </text>
</g>
<!-- AppModule&#45;&gt;AppComponent  -->
<g id="edge15" class="edge">
<title>AppModule&#45;&gt;AppComponent </title>
<path fill="none" stroke="black" stroke-dasharray="1,5" d="M1129,-187.11C1129,-187.11 1129,-205.99 1129,-205.99"/>
<polygon fill="black" stroke="black" points="1125.5,-205.99 1129,-215.99 1132.5,-205.99 1125.5,-205.99"/>
</g>
<!-- AppRoutingModule -->
<g id="node15" class="node">
<title>AppRoutingModule</title>
<polygon fill="#8dd3c7" stroke="black" points="152.27,-122 149.27,-126 128.27,-126 125.27,-122 23.73,-122 23.73,-86 152.27,-86 152.27,-122"/>
<text text-anchor="middle" x="88" y="-99.8" font-family="Times,serif" font-size="14.00">AppRoutingModule</text>
</g>
<!-- AppRoutingModule&#45;&gt;AppModule -->
<g id="edge14" class="edge">
<title>AppRoutingModule&#45;&gt;AppModule</title>
<path fill="none" stroke="black" d="M88,-122.09C88,-145.13 88,-182 88,-182 88,-182 1077.23,-182 1077.23,-182"/>
<polygon fill="black" stroke="black" points="1077.23,-185.5 1087.23,-182 1077.23,-178.5 1077.23,-185.5"/>
</g>
</g>
</svg>
